<svg xmlns="http://www.w3.org/2000/svg" width="109.062" height="24.812"><path d="M103.409 15.916l5.339-8.451h-4.296l-3.105 5.071-3.104-5.071h-4.297l5.339 8.451h.001l-5.339 8.451h4.296l3.104-5.07 3.104 5.07h4.297l-5.339-8.451zM8.128.705H.252v23.663h3.786v-8.654h4.09c4.327 0 7.504-3.008 7.504-7.504 0-4.497-3.177-7.505-7.504-7.505zm0 11.425h-4.09V4.288h4.09c2.366 0 3.854 1.588 3.854 3.921 0 2.332-1.488 3.921-3.854 3.921zm17.713-4.867c-2.197 0-3.82.913-4.834 2.13V.299l-3.718.405v23.663h3.718v-9.33c0-2.468 1.521-4.259 3.921-4.259 2.569 0 3.685 1.623 3.685 4.259v9.33h3.718V14.226c0-4.496-2.467-6.963-6.49-6.963zm16.733 0c-5.003 0-8.654 3.719-8.654 8.654 0 4.935 3.651 8.654 8.654 8.654s8.654-3.718 8.654-8.654-3.651-8.654-8.654-8.654zm0 13.724c-2.907 0-4.868-2.13-4.868-5.071s1.961-5.071 4.868-5.071 4.868 2.13 4.868 5.071-1.961 5.071-4.868 5.071zM60.997 7.263c-4.8 0-8.586 3.853-8.586 8.654 0 4.8 3.786 8.654 8.687 8.654 3.82 0 7.098-2.062 8.248-5.138h-4.428c-.71 1.082-2.096 1.623-3.82 1.623-2.434 0-4.361-1.724-4.766-3.853h13.15a7.98 7.98 0 0 0 .101-1.284c0-4.803-3.786-8.656-8.586-8.656zm-4.496 6.625c.541-1.758 2.366-3.178 4.496-3.178 2.13 0 3.955 1.42 4.496 3.178h-8.992zm23.02-6.625c-2.332 0-3.853 1.116-4.631 2.13V7.465h-3.718v16.902h3.718v-9.33c0-2.502 1.284-4.259 3.718-4.259s3.685 1.285 3.685 4.259v9.33h3.718V14.226c0-4.496-2.298-6.963-6.49-6.963zM89.967.502c-1.386 0-2.502 1.115-2.502 2.535 0 1.42 1.116 2.535 2.502 2.535s2.502-1.116 2.502-2.535c-.001-1.42-1.116-2.535-2.502-2.535zm-1.859 6.963h3.718v16.902h-3.718z" fill="#444"/></svg>
